<mxfile host="app.diagrams.net" agent="Mozilla/5.0 (Windows NT 10.0; Win64; x64) AppleWebKit/537.36 (KHTML, like Gecko) Chrome/135.0.0.0 Safari/537.36" version="27.1.6">
  <diagram name="Halaman-1" id="eJgpmYVkDUaj_WI06kef">
    <mxGraphModel dx="992" dy="670" grid="1" gridSize="10" guides="1" tooltips="1" connect="1" arrows="1" fold="1" page="1" pageScale="1" pageWidth="850" pageHeight="1100" math="0" shadow="0">
      <root>
        <mxCell id="0" />
        <mxCell id="1" parent="0" />
        <mxCell id="p7OLvs-Zq9FGusVmI9KH-118" value="Pesanan" style="swimlane;childLayout=stackLayout;resizeParent=1;resizeParentMax=0;startSize=20;html=1;" vertex="1" parent="1">
          <mxGeometry x="205.00000000000045" y="80" width="440" height="690" as="geometry" />
        </mxCell>
        <mxCell id="p7OLvs-Zq9FGusVmI9KH-119" value="Bu Icih (pemilik)" style="swimlane;startSize=20;html=1;" vertex="1" parent="p7OLvs-Zq9FGusVmI9KH-118">
          <mxGeometry y="20" width="210" height="670" as="geometry" />
        </mxCell>
        <mxCell id="p7OLvs-Zq9FGusVmI9KH-132" value="" style="edgeStyle=orthogonalEdgeStyle;rounded=0;orthogonalLoop=1;jettySize=auto;html=1;" edge="1" parent="p7OLvs-Zq9FGusVmI9KH-119" source="p7OLvs-Zq9FGusVmI9KH-128" target="p7OLvs-Zq9FGusVmI9KH-131">
          <mxGeometry relative="1" as="geometry" />
        </mxCell>
        <mxCell id="p7OLvs-Zq9FGusVmI9KH-128" value="Menerima notifikasi" style="rounded=1;whiteSpace=wrap;html=1;absoluteArcSize=1;arcSize=14;strokeWidth=2;" vertex="1" parent="p7OLvs-Zq9FGusVmI9KH-119">
          <mxGeometry x="49.999999999999545" y="220" width="100" height="40" as="geometry" />
        </mxCell>
        <mxCell id="p7OLvs-Zq9FGusVmI9KH-135" value="" style="edgeStyle=orthogonalEdgeStyle;rounded=0;orthogonalLoop=1;jettySize=auto;html=1;" edge="1" parent="p7OLvs-Zq9FGusVmI9KH-119" source="p7OLvs-Zq9FGusVmI9KH-131" target="p7OLvs-Zq9FGusVmI9KH-134">
          <mxGeometry relative="1" as="geometry" />
        </mxCell>
        <mxCell id="p7OLvs-Zq9FGusVmI9KH-131" value="Melihat pesanan" style="rounded=1;whiteSpace=wrap;html=1;absoluteArcSize=1;arcSize=14;strokeWidth=2;" vertex="1" parent="p7OLvs-Zq9FGusVmI9KH-119">
          <mxGeometry x="49.999999999999545" y="300" width="100" height="40" as="geometry" />
        </mxCell>
        <mxCell id="p7OLvs-Zq9FGusVmI9KH-141" value="" style="edgeStyle=orthogonalEdgeStyle;rounded=0;orthogonalLoop=1;jettySize=auto;html=1;" edge="1" parent="p7OLvs-Zq9FGusVmI9KH-119" source="p7OLvs-Zq9FGusVmI9KH-134" target="p7OLvs-Zq9FGusVmI9KH-137">
          <mxGeometry relative="1" as="geometry" />
        </mxCell>
        <mxCell id="p7OLvs-Zq9FGusVmI9KH-143" value="Ya" style="edgeLabel;html=1;align=center;verticalAlign=middle;resizable=0;points=[];" vertex="1" connectable="0" parent="p7OLvs-Zq9FGusVmI9KH-141">
          <mxGeometry x="-0.768" y="-1" relative="1" as="geometry">
            <mxPoint as="offset" />
          </mxGeometry>
        </mxCell>
        <mxCell id="p7OLvs-Zq9FGusVmI9KH-134" value="konfirmasi pembayaran" style="strokeWidth=2;html=1;shape=mxgraph.flowchart.decision;whiteSpace=wrap;" vertex="1" parent="p7OLvs-Zq9FGusVmI9KH-119">
          <mxGeometry x="59.999999999999545" y="350" width="90" height="80" as="geometry" />
        </mxCell>
        <mxCell id="p7OLvs-Zq9FGusVmI9KH-137" value="Membuat pesanan" style="rounded=1;whiteSpace=wrap;html=1;absoluteArcSize=1;arcSize=14;strokeWidth=2;" vertex="1" parent="p7OLvs-Zq9FGusVmI9KH-119">
          <mxGeometry x="54.999999999999545" y="470" width="100" height="40" as="geometry" />
        </mxCell>
        <mxCell id="p7OLvs-Zq9FGusVmI9KH-120" value="Pelanggan" style="swimlane;startSize=20;html=1;" vertex="1" parent="p7OLvs-Zq9FGusVmI9KH-118">
          <mxGeometry x="210" y="20" width="230" height="670" as="geometry" />
        </mxCell>
        <mxCell id="p7OLvs-Zq9FGusVmI9KH-155" value="" style="edgeStyle=orthogonalEdgeStyle;rounded=0;orthogonalLoop=1;jettySize=auto;html=1;" edge="1" parent="p7OLvs-Zq9FGusVmI9KH-120" source="p7OLvs-Zq9FGusVmI9KH-122" target="p7OLvs-Zq9FGusVmI9KH-152">
          <mxGeometry relative="1" as="geometry" />
        </mxCell>
        <mxCell id="p7OLvs-Zq9FGusVmI9KH-122" value="Mulai" style="strokeWidth=2;html=1;shape=mxgraph.flowchart.terminator;whiteSpace=wrap;" vertex="1" parent="p7OLvs-Zq9FGusVmI9KH-120">
          <mxGeometry x="60" y="40" width="80" height="40" as="geometry" />
        </mxCell>
        <mxCell id="p7OLvs-Zq9FGusVmI9KH-130" value="" style="edgeStyle=orthogonalEdgeStyle;rounded=0;orthogonalLoop=1;jettySize=auto;html=1;" edge="1" parent="p7OLvs-Zq9FGusVmI9KH-120" source="p7OLvs-Zq9FGusVmI9KH-126" target="p7OLvs-Zq9FGusVmI9KH-127">
          <mxGeometry relative="1" as="geometry" />
        </mxCell>
        <mxCell id="p7OLvs-Zq9FGusVmI9KH-126" value="Memesan makanan" style="rounded=1;whiteSpace=wrap;html=1;absoluteArcSize=1;arcSize=14;strokeWidth=2;" vertex="1" parent="p7OLvs-Zq9FGusVmI9KH-120">
          <mxGeometry x="49.999999999999545" y="190" width="100" height="40" as="geometry" />
        </mxCell>
        <mxCell id="p7OLvs-Zq9FGusVmI9KH-127" value="Mengirim notifikasi" style="rounded=1;whiteSpace=wrap;html=1;absoluteArcSize=1;arcSize=14;strokeWidth=2;" vertex="1" parent="p7OLvs-Zq9FGusVmI9KH-120">
          <mxGeometry x="49.999999999999545" y="250" width="100" height="40" as="geometry" />
        </mxCell>
        <mxCell id="p7OLvs-Zq9FGusVmI9KH-146" value="Selesai" style="strokeWidth=2;html=1;shape=mxgraph.flowchart.terminator;whiteSpace=wrap;" vertex="1" parent="p7OLvs-Zq9FGusVmI9KH-120">
          <mxGeometry x="67.5" y="570" width="85" height="40" as="geometry" />
        </mxCell>
        <mxCell id="p7OLvs-Zq9FGusVmI9KH-154" value="" style="edgeStyle=orthogonalEdgeStyle;rounded=0;orthogonalLoop=1;jettySize=auto;html=1;" edge="1" parent="p7OLvs-Zq9FGusVmI9KH-120" source="p7OLvs-Zq9FGusVmI9KH-152" target="p7OLvs-Zq9FGusVmI9KH-126">
          <mxGeometry relative="1" as="geometry" />
        </mxCell>
        <mxCell id="p7OLvs-Zq9FGusVmI9KH-152" value="Melakukan scanning barcode" style="shape=parallelogram;html=1;strokeWidth=2;perimeter=parallelogramPerimeter;whiteSpace=wrap;rounded=1;arcSize=12;size=0.23;" vertex="1" parent="p7OLvs-Zq9FGusVmI9KH-120">
          <mxGeometry x="27.5" y="100" width="145" height="60" as="geometry" />
        </mxCell>
        <mxCell id="p7OLvs-Zq9FGusVmI9KH-159" value="" style="edgeStyle=orthogonalEdgeStyle;rounded=0;orthogonalLoop=1;jettySize=auto;html=1;" edge="1" parent="p7OLvs-Zq9FGusVmI9KH-120" source="p7OLvs-Zq9FGusVmI9KH-157" target="p7OLvs-Zq9FGusVmI9KH-146">
          <mxGeometry relative="1" as="geometry" />
        </mxCell>
        <mxCell id="p7OLvs-Zq9FGusVmI9KH-157" value="Menerima Pesanan" style="rounded=1;whiteSpace=wrap;html=1;absoluteArcSize=1;arcSize=14;strokeWidth=2;" vertex="1" parent="p7OLvs-Zq9FGusVmI9KH-120">
          <mxGeometry x="59.999999999999545" y="470" width="100" height="40" as="geometry" />
        </mxCell>
        <mxCell id="p7OLvs-Zq9FGusVmI9KH-129" value="" style="edgeStyle=orthogonalEdgeStyle;rounded=0;orthogonalLoop=1;jettySize=auto;html=1;" edge="1" parent="p7OLvs-Zq9FGusVmI9KH-118" source="p7OLvs-Zq9FGusVmI9KH-127" target="p7OLvs-Zq9FGusVmI9KH-128">
          <mxGeometry relative="1" as="geometry" />
        </mxCell>
        <mxCell id="p7OLvs-Zq9FGusVmI9KH-149" style="edgeStyle=orthogonalEdgeStyle;rounded=0;orthogonalLoop=1;jettySize=auto;html=1;entryX=0;entryY=0.5;entryDx=0;entryDy=0;entryPerimeter=0;" edge="1" parent="p7OLvs-Zq9FGusVmI9KH-118" source="p7OLvs-Zq9FGusVmI9KH-134" target="p7OLvs-Zq9FGusVmI9KH-146">
          <mxGeometry relative="1" as="geometry">
            <Array as="points">
              <mxPoint x="25" y="410" />
              <mxPoint x="25" y="610" />
            </Array>
          </mxGeometry>
        </mxCell>
        <mxCell id="p7OLvs-Zq9FGusVmI9KH-150" value="Tidak" style="edgeLabel;html=1;align=center;verticalAlign=middle;resizable=0;points=[];" vertex="1" connectable="0" parent="p7OLvs-Zq9FGusVmI9KH-149">
          <mxGeometry x="-0.164" relative="1" as="geometry">
            <mxPoint as="offset" />
          </mxGeometry>
        </mxCell>
        <mxCell id="p7OLvs-Zq9FGusVmI9KH-158" value="" style="edgeStyle=orthogonalEdgeStyle;rounded=0;orthogonalLoop=1;jettySize=auto;html=1;" edge="1" parent="p7OLvs-Zq9FGusVmI9KH-118" source="p7OLvs-Zq9FGusVmI9KH-137" target="p7OLvs-Zq9FGusVmI9KH-157">
          <mxGeometry relative="1" as="geometry" />
        </mxCell>
      </root>
    </mxGraphModel>
  </diagram>
</mxfile>
